<?xml version="1.0" encoding="UTF-8" standalone="no"?>
<!-- Created with Inkscape (http://www.inkscape.org/) -->

<svg
   xmlns:dc="http://purl.org/dc/elements/1.1/"
   xmlns:cc="http://creativecommons.org/ns#"
   xmlns:rdf="http://www.w3.org/1999/02/22-rdf-syntax-ns#"
   xmlns:svg="http://www.w3.org/2000/svg"
   xmlns="http://www.w3.org/2000/svg"
   xmlns:sodipodi="http://sodipodi.sourceforge.net/DTD/sodipodi-0.dtd"
   xmlns:inkscape="http://www.inkscape.org/namespaces/inkscape"
   width="210mm"
   height="297mm"
   viewBox="0 0 210 297"
   version="1.1"
   id="svg8"
   sodipodi:docname="ubos-letters-only-smooth.svg"
   inkscape:version="0.92.2 2405546, 2018-03-11"
   inkscape:export-filename="/home/jernst/git/github.com/uboslinux/ubos-docs/images/logo2/ubos-1000x1000.png"
   inkscape:export-xdpi="254"
   inkscape:export-ydpi="254">
  <sodipodi:namedview
     id="base"
     pagecolor="#ffffff"
     bordercolor="#666666"
     borderopacity="1.0"
     inkscape:pageopacity="0.0"
     inkscape:pageshadow="2"
     inkscape:zoom="6.5498916"
     inkscape:cx="38.238554"
     inkscape:cy="29.4796"
     inkscape:document-units="mm"
     inkscape:current-layer="layer1"
     showgrid="false"
     inkscape:window-width="1920"
     inkscape:window-height="1021"
     inkscape:window-x="0"
     inkscape:window-y="0"
     inkscape:window-maximized="1" />
  <defs
     id="defs2" />
  <metadata
     id="metadata5">
    <rdf:RDF>
      <cc:Work
         rdf:about="">
        <dc:format>image/svg+xml</dc:format>
        <dc:type
           rdf:resource="http://purl.org/dc/dcmitype/StillImage" />
        <dc:title></dc:title>
      </cc:Work>
    </rdf:RDF>
  </metadata>
  <g
     id="layer1"
     inkscape:groupmode="layer"
     inkscape:label="Layer 1">
    <path
       inkscape:export-ydpi="254"
       inkscape:export-xdpi="254"
       d="m 17.360889,274.58175 -5.571,5.27438 c 0,0 0.09843,5.79572 -4.4e-4,8.69105 -0.02474,0.7245 -0.03147,1.45426 -0.148241,2.16972 -0.04292,0.26295 -0.107055,0.52438 -0.201881,0.77336 -0.0787,0.20664 -0.17327,0.41082 -0.301878,0.5907 -0.11514,0.16104 -0.254575,0.30807 -0.412995,0.42679 -0.161329,0.1209 -0.343251,0.22009 -0.53523,0.28163 -0.4746938,0.15216 -0.9831565,0.2028 -1.4816421,0.2028 -0.4984936,0 -1.0069635,-0.0506 -1.4816663,-0.2028 -0.1919857,-0.0615 -0.373915,-0.16073 -0.535252,-0.28163 -0.1584265,-0.11872 -0.297869,-0.26575 -0.4130145,-0.42679 -0.1286125,-0.17987 -0.223186,-0.38406 -0.3018895,-0.5907 -0.094827,-0.24898 -0.1589675,-0.51041 -0.2018771,-0.77336 -0.1167543,-0.71546 -0.1234578,-1.44522 -0.1481666,-2.16972 -0.138039,-4.04753 0,-12.14966 0,-12.14966 H 0.05464889 c 0,0 -0.10530706,8.10114 0,12.14966 0.01912537,0.73527 0.02524961,1.47352 0.11471342,2.20358 0.0762249,0.62203 0.17801782,1.24541 0.35849392,1.84554 0.15659771,0.52073 0.35219459,1.03624 0.62380487,1.50731 0.2493426,0.43245 0.5536515,0.83995 0.9106463,1.18886 0.3598341,0.35169 0.7782677,0.64751 1.2190181,0.89021 0.4862275,0.26774 1.0154089,0.45818 1.5489205,0.61137 0.6192222,0.17781 1.2604753,0.27742 1.9003533,0.3523 0.7535661,0.0882 1.5146095,0.11439 2.2733166,0.11303 0.7077458,-0.001 1.4179781,-0.025 2.1202301,-0.11303 0.597978,-0.075 1.197224,-0.17533 1.773312,-0.3523 0.500296,-0.15368 0.995075,-0.34602 1.446188,-0.61137 0.415312,-0.24429 0.805383,-0.54242 1.138857,-0.89021 0.337335,-0.35182 0.619607,-0.76005 0.851322,-1.18886 0.256135,-0.474 0.43746,-0.98872 0.58358,-1.50731 0.169576,-0.60184 0.264309,-1.22435 0.335632,-1.84554 0.08389,-0.7306 0.08955,-1.4684 0.107479,-2.20358 0.113488,-4.65376 3.73e-4,-13.96543 3.73e-4,-13.96543"
       style="font-style:normal;font-variant:normal;font-weight:800;font-stretch:normal;font-size:29.63333321px;line-height:1.25;font-family:'Exo 2';-inkscape-font-specification:'Exo 2, Ultra-Bold';font-variant-ligatures:normal;font-variant-caps:normal;font-variant-numeric:normal;font-feature-settings:normal;text-align:start;letter-spacing:0.26458332px;word-spacing:0px;writing-mode:lr-tb;text-anchor:start;fill:#000000;fill-opacity:1;stroke:none;stroke-width:0.26458332"
       id="path73"
       inkscape:connector-curvature="0"
       sodipodi:nodetypes="ccaaaaaaaaaaaaaccaaaaaaaaaaaaaaaaac" />
    <path
       inkscape:export-ydpi="254"
       inkscape:export-xdpi="254"
       d="m 33.163615,286.14688 c 0,0 1.141029,-0.19217 1.669653,-0.4144 0.2273,-0.0956 0.437022,-0.23431 0.629592,-0.3883 0.186557,-0.14918 0.355616,-0.32282 0.501105,-0.51227 0.150766,-0.19632 0.275072,-0.41396 0.378867,-0.63868 0.113397,-0.24551 0.204576,-0.50345 0.26288,-0.76752 0.139556,-0.63207 0.190257,-1.28409 0.202803,-1.93126 0.0093,-0.48006 -0.0197,-0.96309 -0.0948,-1.43733 -0.063,-0.39783 -0.148057,-0.79705 -0.296912,-1.17133 -0.130932,-0.32921 -0.299452,-0.64921 -0.517773,-0.92824 -0.212967,-0.27219 -0.473886,-0.5104 -0.757386,-0.70807 -0.310884,-0.21676 -0.661096,-0.37722 -1.015752,-0.51083 -0.416722,-0.157 -0.855179,-0.25445 -1.29287,-0.3365 -0.524034,-0.0982 -1.056993,-0.14628 -1.58874,-0.18509 -0.633051,-0.0462 -1.268663,-0.05 -1.903363,-0.0566 -1.539674,-0.0161 -3.080071,-0.007 -4.619096,0.0407 -1.237099,0.0382 -3.707871,0.19634 -3.707871,0.19634 v 20.447 l 4.104217,0.19632 5.171017,0.0407 1.747267,-0.0566 1.490637,-0.1851 1.241301,-0.33649 0.999257,-0.51083 0.764506,-0.70808 0.537046,-0.92824 0.31688,-1.17132 0.104006,-1.43734 -0.225954,-2.18499 -0.299112,-0.893 -0.438018,-0.75582 -0.588036,-0.61553 -0.749168,-0.47211 -0.921411,-0.32556 -1.104768,-0.17589 v -0.1778 m -1.659467,-3.88196 c 0,0 0.0018,0.76869 -0.106958,1.13162 -0.07568,0.25244 -0.182129,0.51431 -0.370879,0.69823 -0.189338,0.18449 -0.455368,0.28203 -0.709811,0.35375 -0.361908,0.10202 -0.748098,0.0818 -1.123752,0.0982 -0.907892,0.0396 -2.726266,0 -2.726266,0 v -4.47463 c 0,0 1.719374,-0.0332 2.5781,0 0.399863,0.0154 0.80904,-0.006 1.196908,0.0926 0.267198,0.0678 0.549701,0.15332 0.755187,0.33708 0.193228,0.1728 0.313131,0.42418 0.394031,0.67045 0.114286,0.34791 0.11344,1.09273 0.11344,1.09273 v 0 m -5.037666,10.90506 v -5.21546 c 0,0 1.857935,-0.0412 2.785533,0 0.440243,0.0195 0.893539,-0.005 1.316831,0.11714 0.29406,0.0851 0.601107,0.20268 0.816769,0.41996 0.217158,0.21879 0.332315,0.52909 0.416719,0.82557 0.122214,0.42929 0.117717,0.88761 0.116681,1.33396 -9.76e-4,0.4205 0.0048,0.85332 -0.115755,1.25618 -0.08336,0.27862 -0.200631,0.5684 -0.410237,0.77 -0.213286,0.20514 -0.513696,0.30868 -0.799174,0.38662 -0.413833,0.11299 -0.853951,0.0883 -1.282567,0.10603 -0.94746,0.0391 -2.8448,0 -2.8448,0"
       style="font-style:normal;font-variant:normal;font-weight:800;font-stretch:normal;font-size:29.63333321px;line-height:1.25;font-family:'Exo 2';-inkscape-font-specification:'Exo 2, Ultra-Bold';font-variant-ligatures:normal;font-variant-caps:normal;font-variant-numeric:normal;font-feature-settings:normal;text-align:start;letter-spacing:0.26458332px;word-spacing:0px;writing-mode:lr-tb;text-anchor:start;fill:#000000;fill-opacity:1;stroke:none;stroke-width:0.26458332"
       id="path75"
       inkscape:connector-curvature="0"
       sodipodi:nodetypes="caaaaaaaaaaaaaaacccccccccccccccccccccaaaaccaaaaacccaaaaaaaaac" />
    <path
       inkscape:export-ydpi="254"
       inkscape:export-xdpi="254"
       d="m 49.086169,275.98265 c 0,0 -1.560167,0.0224 -2.333278,0.11558 -0.656481,0.0792 -1.315653,0.18176 -1.947813,0.37569 -0.549599,0.1686 -1.094246,0.38022 -1.585267,0.67919 -0.45948,0.27977 -0.886459,0.62564 -1.245642,1.02611 -0.376993,0.42033 -0.680514,0.9094 -0.928936,1.41644 -0.286887,0.58555 -0.47827,1.21727 -0.635148,1.85017 -0.188917,0.76215 -0.287418,1.54587 -0.364282,2.32732 -0.093,0.94552 -0.116334,1.89779 -0.116334,2.84787 0,0.95008 0.02333,1.90235 0.116334,2.84787 0.07686,0.78144 0.175365,1.56516 0.364282,2.32731 0.156878,0.6329 0.348261,1.26462 0.635148,1.85017 0.248422,0.50704 0.551943,0.99611 0.928936,1.41644 0.359183,0.40047 0.786162,0.74634 1.245642,1.02611 0.491022,0.29897 1.035667,0.5106 1.585267,0.6792 0.63216,0.19393 1.291332,0.29651 1.947813,0.37568 0.773112,0.0932 1.554565,0.11557 2.333278,0.11558 0.779137,10e-6 1.561002,-0.0224 2.334551,-0.11558 0.657586,-0.0792 1.317825,-0.18187 1.951171,-0.37568 0.551109,-0.16864 1.097268,-0.38026 1.590014,-0.6792 0.461128,-0.27975 0.889999,-0.62546 1.251084,-1.02611 0.378672,-0.42016 0.684253,-0.90913 0.934377,-1.41644 0.288571,-0.5853 0.481722,-1.21706 0.639896,-1.85017 0.190369,-0.76197 0.290033,-1.54576 0.367639,-2.32731 0.09388,-0.94545 0.117608,-1.89777 0.117608,-2.84787 0,-0.9501 -0.02373,-1.90242 -0.117608,-2.84787 -0.07761,-0.78155 -0.17727,-1.56535 -0.367639,-2.32732 -0.158174,-0.63311 -0.351325,-1.26487 -0.639896,-1.85017 -0.250124,-0.50731 -0.555705,-0.99628 -0.934377,-1.41644 -0.361085,-0.40065 -0.789956,-0.74636 -1.251084,-1.02611 -0.492746,-0.29893 -1.038906,-0.51055 -1.590014,-0.67919 -0.633347,-0.19381 -1.293585,-0.2965 -1.951171,-0.37569 -0.773548,-0.0931 -2.334551,-0.11558 -2.334551,-0.11558 v 0 m 0,4.2672 c 0,0 0.59842,0.0125 0.891317,0.0671 0.249016,0.0464 0.49932,0.10974 0.727408,0.21993 0.210912,0.10189 0.410057,0.23661 0.577388,0.40052 0.179058,0.1754 0.3224,0.38819 0.441259,0.60887 0.142771,0.26507 0.237449,0.5552 0.319022,0.84501 0.101942,0.36218 0.166311,0.73531 0.210675,1.10894 0.1228,1.03422 0.151871,2.07928 0.151871,3.12076 0,1.04148 -0.02907,2.08654 -0.151871,3.12076 -0.04436,0.37363 -0.108733,0.74675 -0.210675,1.10893 -0.08157,0.28981 -0.176252,0.57994 -0.319022,0.84501 -0.11886,0.22068 -0.262199,0.43348 -0.441259,0.60888 -0.16733,0.16391 -0.366477,0.29862 -0.577388,0.40051 -0.228088,0.11019 -0.478392,0.17349 -0.727408,0.21993 -0.292897,0.0546 -0.593371,0.0671 -0.891317,0.0671 -0.297945,0 -0.598419,-0.0125 -0.891314,-0.0671 -0.249015,-0.0464 -0.499318,-0.10974 -0.727405,-0.21993 -0.21091,-0.10189 -0.410057,-0.2366 -0.577386,-0.40051 -0.17906,-0.1754 -0.3224,-0.3882 -0.441259,-0.60888 -0.142769,-0.26507 -0.237448,-0.5552 -0.319021,-0.84501 -0.101942,-0.36218 -0.16631,-0.7353 -0.210674,-1.10893 -0.122801,-1.03422 -0.151871,-2.07928 -0.151871,-3.12076 0,-1.04148 0.02907,-2.08654 0.151871,-3.12076 0.04436,-0.37363 0.108732,-0.74676 0.210674,-1.10894 0.08157,-0.28981 0.176251,-0.57994 0.319021,-0.84501 0.118859,-0.22068 0.262201,-0.43347 0.441259,-0.60887 0.16733,-0.16391 0.366475,-0.29863 0.577386,-0.40052 0.228087,-0.11019 0.47839,-0.17349 0.727405,-0.21993 0.292895,-0.0546 0.891314,-0.0671 0.891314,-0.0671 v 0"
       style="font-style:normal;font-variant:normal;font-weight:800;font-stretch:normal;font-size:29.63333321px;line-height:1.25;font-family:'Exo 2';-inkscape-font-specification:'Exo 2, Ultra-Bold';font-variant-ligatures:normal;font-variant-caps:normal;font-variant-numeric:normal;font-feature-settings:normal;text-align:start;letter-spacing:0.26458332px;word-spacing:0px;writing-mode:lr-tb;text-anchor:start;fill:#000000;fill-opacity:1;stroke:none;stroke-width:0.26458332"
       id="path77"
       inkscape:connector-curvature="0"
       sodipodi:nodetypes="caaaaaaaaaaaaaaaaaaaaaaaaaaaaaaaaccaaaaaaaaaaaaaaaaaaaaaaaaaaaac" />
    <path
       inkscape:export-ydpi="254"
       inkscape:export-xdpi="254"
       d="m 68.738829,276.01228 c 0,0 -1.335847,0.0105 -2.001581,0.0588 -0.562859,0.0408 -1.127048,0.0911 -1.68175,0.19494 -0.466624,0.0873 -0.934111,0.19116 -1.37824,0.35884 -0.381102,0.14389 -0.757296,0.31697 -1.091052,0.55053 -0.307241,0.215 -0.589614,0.47426 -0.820184,0.77 -0.238554,0.30598 -0.42252,0.65664 -0.565638,1.01726 -0.163921,0.41304 -0.257892,0.85339 -0.327414,1.29229 -0.08337,0.5263 -0.118541,1.0624 -0.105511,1.59511 0.01675,0.68465 0.08003,1.37407 0.235677,2.041 0.06965,0.29843 0.180496,0.58773 0.309703,0.86561 0.126064,0.27112 0.277164,0.53209 0.45104,0.77533 0.178259,0.24937 0.382526,0.48124 0.602448,0.69477 0.235885,0.22903 0.489548,0.44278 0.763927,0.62392 0.64445,0.42546 1.350876,0.75179 2.052575,1.0742 1.333393,0.61266 2.730184,1.07683 4.0894,1.62984 0.256493,0.10436 0.523467,0.18717 0.767222,0.31856 0.178348,0.0961 0.362683,0.19492 0.503303,0.34078 0.120259,0.12474 0.216633,0.27784 0.275498,0.4408 0.07069,0.1957 0.08748,0.41054 0.08381,0.61859 -0.0038,0.21529 -0.01057,0.44529 -0.109274,0.63666 -0.0839,0.16266 -0.228324,0.29834 -0.387086,0.38939 -0.225135,0.12912 -0.497124,0.15653 -0.753799,0.19493 -0.399085,0.0597 -0.805911,0.0485 -1.209411,0.0532 -2.380895,0.0276 -7.14163,-0.14816 -7.14163,-0.14816 l -0.32597,3.94123 c 0,0 1.589382,0.35611 2.39243,0.48895 0.696398,0.1152 1.397431,0.20655 2.100726,0.2667 0.998701,0.0854 2.001749,0.12839 3.004084,0.13335 0.690707,0.003 1.382588,-0.014 2.070917,-0.0714 0.575367,-0.048 1.152096,-0.10866 1.717054,-0.22769 0.471259,-0.0993 0.942684,-0.21865 1.387152,-0.4041 0.380492,-0.15876 0.75346,-0.35054 1.081212,-0.60065 0.302927,-0.23117 0.576509,-0.50816 0.799232,-0.81735 0.230872,-0.3205 0.404951,-0.68343 0.541215,-1.05418 0.154854,-0.42133 0.242041,-0.86702 0.307157,-1.31116 0.07694,-0.5248 0.110517,-1.05804 0.09706,-1.58828 -0.01731,-0.6819 -0.07667,-1.36853 -0.22827,-2.03359 -0.06835,-0.29987 -0.176979,-0.59112 -0.30461,-0.87094 -0.125054,-0.27418 -0.275138,-0.53849 -0.448726,-0.78482 -0.178763,-0.25367 -0.384042,-0.48983 -0.60569,-0.70703 -0.239017,-0.23423 -0.496351,-0.45302 -0.775504,-0.63758 -0.662108,-0.43776 -1.388467,-0.77341 -2.11184,-1.10014 -1.225412,-0.55349 -2.510644,-0.96367 -3.76343,-1.45204 -0.306474,-0.11947 -0.624249,-0.21393 -0.918169,-0.36161 -0.211895,-0.10647 -0.430771,-0.21382 -0.604242,-0.37551 -0.138101,-0.12872 -0.259286,-0.28463 -0.331987,-0.45886 -0.07959,-0.19073 -0.102754,-0.40499 -0.101402,-0.61165 0.0015,-0.2283 0.01306,-0.4729 0.120849,-0.67416 0.08756,-0.16349 0.238495,-0.29666 0.40144,-0.38523 0.222744,-0.12107 0.489102,-0.14037 0.74037,-0.17409 0.376086,-0.0505 0.758208,-0.0365 1.137641,-0.0408 2.271936,-0.0259 6.81567,0.0889 6.81567,0.0889 l 0.3556,-3.6449 c 0,0 -1.205955,-0.34345 -1.819674,-0.46858 -0.610278,-0.12443 -1.227721,-0.21759 -1.847454,-0.27967 -1.14397,-0.11458 -3.444872,-0.17039 -3.444872,-0.17039 v 0"
       style="font-style:normal;font-variant:normal;font-weight:800;font-stretch:normal;font-size:29.63333321px;line-height:1.25;font-family:'Exo 2';-inkscape-font-specification:'Exo 2, Ultra-Bold';font-variant-ligatures:normal;font-variant-caps:normal;font-variant-numeric:normal;font-feature-settings:normal;text-align:start;letter-spacing:0.26458332px;word-spacing:0px;writing-mode:lr-tb;text-anchor:start;fill:#000000;fill-opacity:1;stroke:none;stroke-width:0.26458332"
       id="path79"
       inkscape:connector-curvature="0"
       sodipodi:nodetypes="caaaaaaaaaaaaaaaaaaaaaaaccaaaaaaaaaaaaaaaaaaaaaaaaaaccaaac" />
  </g>
</svg>
